<svg xmlns="http://www.w3.org/2000/svg" id="svg2" version="1.1" width="72" height="60" viewBox="0 0 72 60">
  <defs id="defs4">
    <style id="style6">
      .b{fill:#720918}.c{fill:#ffdc00}
    </style>
  </defs>
  <path id="path4031" d="m62.505609 44.082401-51.523106-5.147127C7.2515784 28.152312 8.6271136 15.433947 15.230281 4.2990258L58.250351.00003904C53.119956 13.773535 54.491751 29.936769 62.505609 44.082401Z" style="fill:#d20a28;stroke-width:0.74761993"/>
  <g id="g4033" transform="matrix(.71363 0 0 .71294 13759.088 15418.275)">
    <path id="path4035" d="M57.826172 18c-.135 0-.375438.000078-.398438.08008a.792.792 0 0 0 .183594.47461c.512.492999.481828.811906.423828.878906-.06.07.000641.444453-.318359-.06055a1.73 1.73 0 0 0-2.099609-.699219c-.126001 0-.154297-.000172-.154297.173828a.619.619 0 0 0 .162109.376953 1.778 1.778 0 0 0-1.449219.453125c-.09.1.000313.30025.07031.40625a.309.309 0 0 0 .144531.126954 2.039 2.039 0 0 0-.964844 1.93164c.319 1.8 2.183328 2.658844 5.111328 2.339844a23.358 23.358 0 0 0 5.238282-1.333984c1.092-.377001 2.327812-.811563 3.757812-1.226563a8.234 8.234 0 0 1 6.15625.357422 2.9 2.9 0 0 1 1.480469 1.730469 1.546 1.546 0 0 1-.339844 1.341796 3.614 3.614 0 0 1-3.216797 1.238282 28.026 28.026 0 0 1-4.175781-.484375c-1.053-.184-2.367547-.406438-4.435547-.648438a26.48 26.48 0 0 0-4.609375-.06836h-1.027344a12.883 12.883 0 0 1-2.716796-.08984 6.218 6.218 0 0 1-3.150391-1.160156c-.08-.193.483797-.401141.966797-.494141a.309.309 0 0 0 0-.609375c-.251-.05-.966797-.278781-.966797-.675781a5.325 5.325 0 0 0-.376953-1.46875 1.8 1.8 0 0 0 .09961-1.392578.966.966 0 0 0-.347656-.550781 1.788 1.788 0 0 0-1.488281.376953 5.016 5.016 0 0 0-1.730469-.367188h-.105469a5.006 5.006 0 0 0-1.865234.40625 1.807 1.807 0 0 0-1.517578-.40625.966.966 0 0 0-.347657.550781 1.8 1.8 0 0 0 .117188 1.382813l.08984.154297a6.186 6.186 0 0 0-.144532 1.40039c0 .290001-.774562.570438-1.101562.648438-.116 0-.278828.05841-.298828.191406a.425.425 0 0 0 .298828.416016c.561.126.966797.406.966797.5-.08.435-.879625.782906-1.140625.878906-.261.1-.240703.126484-.220703.271484a.445.445 0 0 0 .33789.330079c.338 0 .9655.19189 1.0625.46289a.966.966 0 0 1-.251953.541016 13.927 13.927 0 0 1-4.212891-1.023438c-.782999-.387-2.068546-1.081859-2.310546-1.255859a13.124 13.124 0 0 1-2.085938-2.078125 2.841 2.841 0 0 0-.435547-.724609 1.653 1.653 0 0 0-1.189453-.550782l-.232422-.320312c-.319-.416-1.042469-.510531-2.230468-.269531l-.15625-.126953c-.677-.493-1.729938.30039-1.835938.40039-.106.1-.08.231422 0 .357422a.309.309 0 0 0 .330078.183594 1.537 1.537 0 0 1 .53125 0 2.836 2.836 0 0 0 .31836.464844l-.445313.222656c-.106.08-.09.231422 0 .357422a.309.309 0 0 0 .300781.21289 1.933 1.933 0 0 1 .753906.09961l.386719.40625.126953.134765c-.213.106-.436375.193656-.484375.222657a.364.364 0 0 0 0 .376953.319.319 0 0 0 .300782.21289 1.933 1.933 0 0 1 .753906.09961l.212891.357421a2.435 2.435 0 0 0 .521484.8125 2.213 2.213 0 0 0 .966797.5 2.31 2.31 0 0 1 .966797.464844l.183593.154297.328125.271485c.193.154999.261719.279124.261719.328124 0 .05-.101172.08006-.201172.164063a.387.387 0 0 0 0 .425781.309.309 0 0 0 .339844.173828c.773-.155 1.298563.000063 1.351563.164063.05.164-.144422.29925-.482422.53125a.338.338 0 0 0-.06055.435547.309.309 0 0 0 .386719.144531c.879-.329 1.601171-.242 1.701171 0 .1.242-.155968.406141-.667968.744141a.338.338 0 0 0-.05859.445312.309.309 0 0 0 .404297.125c.966-.435 1.721422-.357469 1.857422-.105469.136.252-.243094.6665-.871094 1.0625-.08 0 .0014.127844-.05859.214844a.309.309 0 0 0 .44336.318359h.06055a2.339 2.339 0 0 1 1.933594-.261718 4.078 4.078 0 0 1 .337891.232422s.11564-.08041-.19336.183593c-4.3 3.7-5.364625 4.832782-6.765625 5.300782h-.183593a3.353 3.353 0 0 0-.685547-.126953 1.044 1.044 0 0 0-.908203.455078h-.445313c-.532 0-1.023156.2125-1.410156 1.0625a2.648 2.648 0 0 0-.173828 1.072265.309.309 0 0 0 .173828.271485 1.759 1.759 0 0 0 .724609.08008.309.309 0 0 0 .300781-.279297 1.228 1.228 0 0 1 .105469-.347656 1.6 1.6 0 0 0 0 .365234.309.309 0 0 0 .289063.261719 5.556 5.556 0 0 0 .822265 0 .309.309 0 0 0 .212891-.125c.05-.08 0-.135188 0-.242188a2.349 2.349 0 0 1 .400391-.966797 5.8 5.8 0 0 0-.175782 1.015625.309.309 0 0 0 .28125.328125 11.935 11.935 0 0 0 2.976563-.08008c.754-.222.900031-.463078 1.082031-.830078l.105469-.212891a1.614 1.614 0 0 1 .5625-.677734 1.314 1.314 0 0 1 1.023437-.445312.338.338 0 0 1 .164063.232422.319.319 0 0 0 .298828.222656.309.309 0 0 0 .291016-.232422c.164-.657.521906-1.062203.753906-1.033203.232.03.318719.269187.386719.617187a.309.309 0 0 0 .609375 0c.06-.879.434546-1.410156.685546-1.410156.184001 0 .424485.308375.521485.859375a.309.309 0 0 0 .591797-.08008 2.078 2.078 0 0 1 .455078-1.507813.425.425 0 0 1 .289062-.154296c.271 0 .628141.416625.744141 1.140624a.31214916.31214916 0 1 0 .619141-.08008v-.08008a2.2 2.2 0 0 1 .40039-1.546875.59.59 0 0 1 .40625-.222656c.319 0 .656141.309797.869141.841797a.309.309 0 0 0 .601562-.105469c0-.358.626391-.812203 1.525391-.908203l.349609.0098a3.411 3.411 0 0 0 1.507813-.251954 5.47 5.47 0 0 0 1.121094-1.042968 7.819 7.819 0 0 1 2.611328-2.060547 19.57 19.57 0 0 1 2.746094-.839844 1.343 1.343 0 0 0-.65625.53125 2.793 2.793 0 0 0 .398437 3.285156l.126953.164063c.638.831.667.966094.5 1.121094-.319.3-.686797.5905-.966797.8125-.28.222-.329015.26089-.416015.33789l-.271485.271485c-.2.213-.40525.52125-.53125.53125h-.164062a3.179 3.179 0 0 0-.648438-.115235.966.966 0 0 0-.849609.40625h-.289063a1.429 1.429 0 0 0-1.363281.964844 2.31 2.31 0 0 0-.183594 1.015625.309.309 0 0 0 .183594.271484 1.933 1.933 0 0 0 .72461.08008.309.309 0 0 0 .300781-.232422.309.309 0 0 0 .279297.232422 5.256 5.256 0 0 0 .773437 0 .309.309 0 0 0 .220703-.126954.416.416 0 0 0 0-.242187 2.039 2.039 0 0 1 .300782-.761719 5.4 5.4 0 0 0-.134766.820313.309.309 0 0 0 .279297.33789s.714687.06055 1.429687.06055a5.6 5.6 0 0 0 1.363282-.126953c.812-.232.966093-.481844 1.121093-.964844a.309.309 0 0 0 0-.07031.966.966 0 0 1 .222657-.5c.7-.85 1.468109-1.169797 1.787109-.966797l.146484.08984a.309.309 0 0 0 .433594-.416016c-.184-.319-.241531-.600078-.144531-.705078.1-.105.551094-.143203 1.121094.0918a.309.309 0 0 0 .232421 0 .309.309 0 0 0 0-.5625c-.638-.261-1.063796-.665844-.966797-.964844.1-.299.571282-.521781 1.238282-.550781a.309.309 0 0 0 .06836-.609375l-.328125-.09961a2.753 2.753 0 0 1-1.625-.773437c-.03-.155.400453-.475172 1.314453-.701172a5.508 5.508 0 0 1 1.150391.580078 11.114 11.114 0 0 0 2.513672 1.140625 37.392 37.392 0 0 0 4.580078.541016 1.933 1.933 0 0 1 .74414 2.173828c-.134999.271-.398953.783781-.626953.800781h-.193359a3.789 3.789 0 0 0-.714844-.117187 1.121 1.121 0 0 0-.966797.425781h-.318359a1.522 1.522 0 0 0-1.429688.966797 2.387 2.387 0 0 0-.185546 1.052734.309.309 0 0 0 .185546.269531 1.991 1.991 0 0 0 .742188.08008.29.29 0 0 1 .570312 0 6.485 6.485 0 0 0 .861329 0 .309.309 0 0 0 .220703-.125.483.483 0 0 0 0-.251953 2.368 2.368 0 0 1 .464844-.964843 5.15 5.15 0 0 0-.201172 1.023437.309.309 0 0 0 .291015.337891c.06 0 .879703.06055 1.720703.06055a6.823 6.823 0 0 0 1.525391-.126953c.677-.184001 1.141047-.898469 1.373047-2.105469a3.575 3.575 0 0 0 .06055-.533203c0-.474-.07031-1.062766-.07031-1.884766 0-1.053.406203-1.720234.783203-1.740234h.08984a.309.309 0 0 0 .04883-.609375c-.754-.174-1.051968-.464078-1.042969-.580079 0-.116.164313-.250953.570313-.376953h.115234a.309.309 0 0 0-.193367-.580118c-.648.116-1.199984.0012-1.333984-.259765-.134-.261.0012-.483969.28125-.792969l.04883-.08008a.309.309 0 0 0-.06055-.357422.435.435 0 0 0-.404297-.08008 6.214 6.214 0 0 1-2.166016.792969h-.298828a6.929 6.929 0 0 1-1.546875-.28125 3.982 3.982 0 0 1-2.029297-1.527344 6.793 6.793 0 0 0-.550781-.607422L67.625 28.1875l.484375.04883a25.811 25.811 0 0 1 3.322266.136719l-.0078.0059c2.4.145 4.551281-.744484 5.488281-2.271484a3.238 3.238 0 0 0 0-3.458984 6.272 6.272 0 0 0-4.199218-2.783204 12.564 12.564 0 0 0-5.683594.279297c-.831.213-1.729438.475032-2.773438.832031a45.48 45.48 0 0 1-5.90039 1.728516 3.972 3.972 0 0 1-2.308594-.220703.57.57 0 0 1-.185547-.367187c0-.126001.368172-.366954 1.451172-.376954 4.755 0 6.077891-2.492437 6.212891-2.773437a.323.323 0 0 0-.492201-.388715 5.8 5.8 0 0 1-3.083984.753906 1.633 1.633 0 0 1-.482422-.404297A2.184 2.184 0 0 0 57.826172 18Zm-10.244141 6.707031a2.165 2.165 0 0 0 1.160157.164063 2.26 2.26 0 0 1-.134766.308594c-.06.116-.116063.231656-.164063.347656-.213.483-.358796.74414-.841797.74414-.473999 0-.617843-.278718-.839843-.761718-.05-.106-.10725-.223313-.15625-.320313a2.223 2.223 0 0 1-.134766-.308594 2.223 2.223 0 0 0 1.121094-.164062l-.0098-.0098z" class="b" style="fill:#720918" transform="translate(-19285.918 -21636)"/>
    <g id="g4037">
      <path id="path4039" d="M57.455078 18.148438c.705.676999.676422 1.30039.357422 1.40039a.464.464 0 0 1-.541016-.136719 1.633 1.633 0 0 0-1.816406-.617187s.84025.270015.65625.666016c0 .06-.145187.07008-.242187.08008a.618.618 0 0 1-.240235 0 1.14 1.14 0 0 0-1.458984.251953s.599609-.116235.724609.134765c-.918.445-1.615172 1.139829-1.451172 2.048828.329 1.875 2.475391 2.327938 4.775391 2.085938 2.725-.29 5.053685-1.488375 8.929688-2.609375 3.876-1.121 7.432484.09055 8.021484 2.310547.309 1.16-.716188 2.899437-3.867188 2.773437-3.151-.126-3.941906-.588674-8.628906-1.138671a34.25 34.25 0 0 0-5.601562 0 13.085 13.085 0 0 1-2.773438-.09961c-.966-.145-3.390922-.610578-3.419922-1.267578-.03-.657 1.246094-.798828 1.246094-.798828s-1.188859-.242797-1.255859-.966797a5.673 5.673 0 0 0-.347657-1.554687l.08984-.136719a1.421 1.421 0 0 0-.09961-1.515625 1.614 1.614 0 0 0-1.285157.46289 4.736 4.736 0 0 0-1.875-.550781 4.706 4.706 0 0 0-1.933593.474609 1.614 1.614 0 0 0-1.382813-.474609 1.421 1.421 0 0 0-.09961 1.517578 1.932 1.932 0 0 0 .164062.259766 4.832 4.832 0 0 0-.308593 1.470703c-.05.638-1.217563.964844-1.226563.964844 0 0 1.322797.310328 1.216797.861328-.116.725-1.265625 1.082031-1.265625 1.082031s1.199984.104125 1.333984.703125c.06.261-.174609.494031-.474609.832031a13.752 13.752 0 0 1-4.472656-1.041015 27.117 27.117 0 0 1-2.400391-1.298828 13.4 13.4 0 0 1-2.078125-2.078125 2.7 2.7 0 0 0-.386719-.667969 1.382 1.382 0 0 0-1.179687-.453125c-.116-.174-.260594-.367313-.308594-.445313-.309-.416-1.342609-.279-2.099609-.125a1.237 1.237 0 0 0-.222657-.21289c-.492999-.367-1.390626.376953-1.390624.376953 0 0 .665828-.09077.798828.115234l.580078-.21289a.667.667 0 0 0-.31836.589843l.125.183594a4.378 4.378 0 0 1 2.15625-.154297 4.755 4.755 0 0 0-1.02539.47461l-.08008-.06055c-.59-.377-1.554688.328125-1.554688.328125a2.194 2.194 0 0 1 .964844.164062l.08008.07031.464844-.376953a1.111 1.111 0 0 0-.164063.699218l.07031.0918.154297.164063s2.232796-.648 2.841797 0a2.629 2.629 0 0 0-1.720704.414062c-.59-.377-1.55664.330078-1.55664.330078a2.194 2.194 0 0 1 .966797.164063l.08984.08008.367188-.330078a1.169 1.169 0 0 0-.144531.74414 2.184 2.184 0 0 0 .453125.714844c.522.5 1.266593.348797 1.933593.966797l.492188.416016a.879.879 0 0 1 .376953.550781.59.59 0 0 1-.259766.482422c.841-.164 1.565219.000187 1.699219.367187.134.367-.125547.628797-.560547.966797.966-.367 1.93261-.31 2.09961.125.167.435-.155375.792158-.734375 1.160156.966-.463999 2.000718-.454 2.261718 0 .261.454001-.17439 1.016469-.90039 1.480469h.06055a2.629 2.629 0 0 1 2.199218-.261719 10.447 10.447 0 0 0 2.212891-1.769531 8.389 8.389 0 0 1-1.990234 2.677735c-.28.271-2.106782 1.758593-2.425782 2.058593-1.556 1.208-3.171109 2.55061-3.287109 2.59961-.377.164-.888328.542203-1.236328.533203a4.59 4.59 0 0 0-.859366-.173829.86.86 0 0 0-.744141.472656c-.2 0-.512375-.05859-.609375-.05859-.445 0-.850093.483032-1.121093 1.082032a2.416 2.416 0 0 0-.144532.964843 1.585 1.585 0 0 0 .580078.05078 3.392 3.392 0 0 1 1.177735-1.818359 4.069 4.069 0 0 0-.453125 1.828125 5.344 5.344 0 0 0 .761718 0c0-.532.701172-2.000594 1.451172-1.933594h.164063c-.657.222-.792969 1.933594-.792969 1.933594a11.906 11.906 0 0 0 2.900391-.06055c.812-.242.744797-.44539.966797-.90039a1.933 1.933 0 0 1 .560546-.666016 1.546 1.546 0 0 1 1.333985-.5.619.619 0 0 1 .357422.435547c.2-.773.647797-1.325578 1.091797-1.267578.444.06.562203.378093.658203.871094.06-.966001.498672-1.721172 1.013672-1.701172.515.02.701265.474328.822265 1.111328 0-1.024.414844-1.864766.964844-1.884766.55-.02.967688.590391 1.054688 1.400391v-.08008c-.08-1.121.405796-2.05861 1.091796-2.09961a1.348 1.348 0 0 1 1.167969 1.033203c0-.57.799641-1.099031 1.806641-1.207031h.380859a3.518 3.518 0 0 0 1.353516-.201172c1.121-.725 1.382765-1.932094 3.759765-3.121093a19.329 19.329 0 0 1 3.121094-.966797 8.823 8.823 0 0 1 3-.400391h.07031a2.339 2.339 0 0 1 .714843.376953 8.93 8.93 0 0 1 1.53711 1.847656c.213.377.0705.183219.8125.699219a10.718 10.718 0 0 0 2.435547 1.09961 36.58 36.58 0 0 0 4.541015.628906h.08008a2.213 2.213 0 0 1 .878907 2.589844c-.184.358-.463672.783437-.888672.773437a5.237 5.237 0 0 0-.900391-.164063.908.908 0 0 0-.773437.44336l-.472657-.05859c-.464 0-.889453.463203-1.189453 1.033203a2.136 2.136 0 0 0-.15625.900391 1.817 1.817 0 0 0 .619141.05078 2.948 2.948 0 0 1 1.15039-1.828125 3.634 3.634 0 0 0-.46289 1.699219 6.129 6.129 0 0 0 .798828 0c0-.454.734109-1.931281 1.537109-1.863281h.173829c-.686003.213-.839844 1.863281-.839844 1.863281a15.462 15.462 0 0 0 3.15039-.04883c.8-.222 1.073391-1.450235 1.150391-1.865235a3.3 3.3 0 0 0 .06055-.482422c-.05-.521999-.07031-1.169593-.07031-1.933593 0-1.121.444266-2.019828 1.072266-2.048828h.08984c-.802-.154-1.333453-.511907-1.314453-.878907h-.02148c0-.265922.307581-.489788.748047-.646484-.73596.112813-1.356378-.02898-1.558594-.425781a1.044 1.044 0 0 1 .300782-1.189453 7.267 7.267 0 0 1-2.347657.724609h-.300781a7.886 7.886 0 0 1-1.632812-.212891c-1.411-.377-2.008844-1.51689-2.714844-2.21289a2.542 2.542 0 0 0-1.121094-.761719s-.06117-.1.798828 0c.858.1 1.538016.192656 4.041016.347656 4.03.242 6.764392-2.464578 5.15039-5.267578-1.614-2.803-5.900296-3.431-9.529296-2.5-2.174.551-4.929094 1.80661-8.746094 2.599609A4.291 4.291 0 0 1 55.5 22.453125c-.358-.174-.898594-1.198797 1.441406-1.216797 4.552 0 5.79936-2.309609 5.94336-2.599609a7.084 7.084 0 0 1-3.298828.771484.532.532 0 0 1-.201172-.04883c-.625-.361-.685688-1.060938-1.929688-1.210937zm18.21875 13.445312c.03561-.0055.06738-.0031.103516-.0098h-.08008c-.0085.0029-.01503.0068-.02344.0098zm-29.914062-9.996094a3.527 3.527 0 0 1 .171875.0098c.551.05.773437.182703.773437.220703a.744.744 0 0 1-.878906.619141 1.121 1.121 0 0 1-.841797-.347657h.01953a.87.87 0 0 1-.289062-.376953 3.527 3.527 0 0 1 1.044922-.125zm3.316406.002a3.527 3.527 0 0 1 .002 0 3.527 3.527 0 0 1 .865234.126953.87.87 0 0 1-.291015.376954 1.121 1.121 0 0 1-.820313.347656.744.744 0 0 1-.878906-.619141 1.754 1.754 0 0 1 .771484-.222656 3.527 3.527 0 0 1 .351563-.0098zm-2.525391 1.53125a.088.088 0 0 1 .002 0 .088.088 0 0 1 .0098 0s.540016.08008.791016.08008c.232 0 .830078-.08008.830078-.08008a.088.088 0 0 1 .07031.125l-.820312.455079h-.08008l-.861328-.455079a.088.088 0 0 1 .05859-.125zm-.714843.978516a1.662 1.662 0 0 0 1.544921 0 1.653 1.653 0 0 0 1.546875 0c.116-.08-.000953.570797-.251953.966797-.357.524-.452265 1.26-1.322265 1.25l-.002-.0039c-.849999 0-.965626-.733094-1.265624-1.246094-.300002-.513-.366-1.024797-.25-.966797zm5.703124 1.09375a.522.522 0 0 0-.199218.300781c-.1.454.474156 1.246703 1.285156 1.845703-.952-.164-1.493203-.04869-1.783203.320313v-.0039c-.271.309.05859 1.024703.433594 1.595703-1.15-.106-2.375657.259843-2.472657.964843a.752.752 0 0 0 0 .105469.966.966 0 0 1-.201172-.5c.06-.58.889594-1.022844 1.933594-.964843a1.469 1.469 0 0 1-.164062-1.429741 1.053 1.053 0 0 1 1.285156-.474609 1.43 1.43 0 0 1-.783203-1.392579c.05-.29.608015-.358187.666015-.367187z" class="c" style="fill:#ffdc00" transform="translate(-19285.918 -21636)"/>
      <path id="path4041" d="m-19222.339-21602.169-.338-.1c-.966-.2-1.865-.667-1.865-1.073 0-.406.686-.783 1.556-.966-.106-.174-.1-.174-.222-.358a3.576 3.576 0 0 0-1.712-1.603 2.745 2.745 0 0 0-.87.05c-1.1.242-2.29.454-2.561.966a2.493 2.493 0 0 0 .377 2.948c.7.9.966 1.247.609 1.691a11.846 11.846 0 0 1-1.411 1.169c-.377.348-.6.705-.966.705a4.339 4.339 0 0 0-.8-.164.8.8 0 0 0-.686.435l-.454-.07c-.454 0-.86.445-1.14.966a2.059 2.059 0 0 0-.145.86 1.759 1.759 0 0 0 .6.05 2.9 2.9 0 0 1 .966-1.633 3.75 3.75 0 0 0-.4 1.691 5.024 5.024 0 0 0 .715 0c0-.4.657-1.856 1.363-1.8h.155c-.619.213-.744 1.8-.744 1.8a11.259 11.259 0 0 0 2.706 0c.715-.2.792-.377.918-.754a1.237 1.237 0 0 1 .29-.667c.734-.9 1.672-1.363 2.194-1.034l.145.09c-.261-.445-.309-.841-.1-1.073a1.515 1.515 0 0 1 1.469 0c-.792-.319-1.285-.841-1.179-1.324.106-.483.766-.761 1.53-.797z" class="c" style="fill:#ffdc00"/>
    </g>
  </g>
  <g id="use4043" transform="matrix(.71363 0 0 .71294 13759.088 15434.713)">
    <path id="path4124" d="M57.826172 18c-.135 0-.375438.000078-.398438.08008a.792.792 0 0 0 .183594.47461c.512.492999.481828.811906.423828.878906-.06.07.000641.444453-.318359-.06055a1.73 1.73 0 0 0-2.099609-.699219c-.126001 0-.154297-.000172-.154297.173828a.619.619 0 0 0 .162109.376953 1.778 1.778 0 0 0-1.449219.453125c-.09.1.000313.30025.07031.40625a.309.309 0 0 0 .144531.126954 2.039 2.039 0 0 0-.964844 1.93164c.319 1.8 2.183328 2.658844 5.111328 2.339844a23.358 23.358 0 0 0 5.238282-1.333984c1.092-.377001 2.327812-.811563 3.757812-1.226563a8.234 8.234 0 0 1 6.15625.357422 2.9 2.9 0 0 1 1.480469 1.730469 1.546 1.546 0 0 1-.339844 1.341796 3.614 3.614 0 0 1-3.216797 1.238282 28.026 28.026 0 0 1-4.175781-.484375c-1.053-.184-2.367547-.406438-4.435547-.648438a26.48 26.48 0 0 0-4.609375-.06836h-1.027344a12.883 12.883 0 0 1-2.716796-.08984 6.218 6.218 0 0 1-3.150391-1.160156c-.08-.193.483797-.401141.966797-.494141a.309.309 0 0 0 0-.609375c-.251-.05-.966797-.278781-.966797-.675781a5.325 5.325 0 0 0-.376953-1.46875 1.8 1.8 0 0 0 .09961-1.392578.966.966 0 0 0-.347656-.550781 1.788 1.788 0 0 0-1.488281.376953 5.016 5.016 0 0 0-1.730469-.367188h-.105469a5.006 5.006 0 0 0-1.865234.40625 1.807 1.807 0 0 0-1.517578-.40625.966.966 0 0 0-.347657.550781 1.8 1.8 0 0 0 .117188 1.382813l.08984.154297a6.186 6.186 0 0 0-.144532 1.40039c0 .290001-.774562.570438-1.101562.648438-.116 0-.278828.05841-.298828.191406a.425.425 0 0 0 .298828.416016c.561.126.966797.406.966797.5-.08.435-.879625.782906-1.140625.878906-.261.1-.240703.126484-.220703.271484a.445.445 0 0 0 .33789.330079c.338 0 .9655.19189 1.0625.46289a.966.966 0 0 1-.251953.541016 13.927 13.927 0 0 1-4.212891-1.023438c-.782999-.387-2.068546-1.081859-2.310546-1.255859a13.124 13.124 0 0 1-2.085938-2.078125 2.841 2.841 0 0 0-.435547-.724609 1.653 1.653 0 0 0-1.189453-.550782l-.232422-.320312c-.319-.416-1.042469-.510531-2.230468-.269531l-.15625-.126953c-.677-.493-1.729938.30039-1.835938.40039-.106.1-.08.231422 0 .357422a.309.309 0 0 0 .330078.183594 1.537 1.537 0 0 1 .53125 0 2.836 2.836 0 0 0 .31836.464844l-.445313.222656c-.106.08-.09.231422 0 .357422a.309.309 0 0 0 .300781.21289 1.933 1.933 0 0 1 .753906.09961l.386719.40625.126953.134765c-.213.106-.436375.193656-.484375.222657a.364.364 0 0 0 0 .376953.319.319 0 0 0 .300782.21289 1.933 1.933 0 0 1 .753906.09961l.212891.357421a2.435 2.435 0 0 0 .521484.8125 2.213 2.213 0 0 0 .966797.5 2.31 2.31 0 0 1 .966797.464844l.183593.154297.328125.271485c.193.154999.261719.279124.261719.328124 0 .05-.101172.08006-.201172.164063a.387.387 0 0 0 0 .425781.309.309 0 0 0 .339844.173828c.773-.155 1.298563.000063 1.351563.164063.05.164-.144422.29925-.482422.53125a.338.338 0 0 0-.06055.435547.309.309 0 0 0 .386719.144531c.879-.329 1.601171-.242 1.701171 0 .1.242-.155968.406141-.667968.744141a.338.338 0 0 0-.05859.445312.309.309 0 0 0 .404297.125c.966-.435 1.721422-.357469 1.857422-.105469.136.252-.243094.6665-.871094 1.0625-.08 0 .0014.127844-.05859.214844a.309.309 0 0 0 .44336.318359h.06055a2.339 2.339 0 0 1 1.933594-.261718 4.078 4.078 0 0 1 .337891.232422s.11564-.08041-.19336.183593c-4.3 3.7-5.364625 4.832782-6.765625 5.300782h-.183593a3.353 3.353 0 0 0-.685547-.126953 1.044 1.044 0 0 0-.908203.455078h-.445313c-.532 0-1.023156.2125-1.410156 1.0625a2.648 2.648 0 0 0-.173828 1.072265.309.309 0 0 0 .173828.271485 1.759 1.759 0 0 0 .724609.08008.309.309 0 0 0 .300781-.279297 1.228 1.228 0 0 1 .105469-.347656 1.6 1.6 0 0 0 0 .365234.309.309 0 0 0 .289063.261719 5.556 5.556 0 0 0 .822265 0 .309.309 0 0 0 .212891-.125c.05-.08 0-.135188 0-.242188a2.349 2.349 0 0 1 .400391-.966797 5.8 5.8 0 0 0-.175782 1.015625.309.309 0 0 0 .28125.328125 11.935 11.935 0 0 0 2.976563-.08008c.754-.222.900031-.463078 1.082031-.830078l.105469-.212891a1.614 1.614 0 0 1 .5625-.677734 1.314 1.314 0 0 1 1.023437-.445312.338.338 0 0 1 .164063.232422.319.319 0 0 0 .298828.222656.309.309 0 0 0 .291016-.232422c.164-.657.521906-1.062203.753906-1.033203.232.03.318719.269187.386719.617187a.309.309 0 0 0 .609375 0c.06-.879.434546-1.410156.685546-1.410156.184001 0 .424485.308375.521485.859375a.309.309 0 0 0 .591797-.08008 2.078 2.078 0 0 1 .455078-1.507813.425.425 0 0 1 .289062-.154296c.271 0 .628141.416625.744141 1.140624a.31214916.31214916 0 1 0 .619141-.08008v-.08008a2.2 2.2 0 0 1 .40039-1.546875.59.59 0 0 1 .40625-.222656c.319 0 .656141.309797.869141.841797a.309.309 0 0 0 .601562-.105469c0-.358.626391-.812203 1.525391-.908203l.349609.0098a3.411 3.411 0 0 0 1.507813-.251954 5.47 5.47 0 0 0 1.121094-1.042968 7.819 7.819 0 0 1 2.611328-2.060547 19.57 19.57 0 0 1 2.746094-.839844 1.343 1.343 0 0 0-.65625.53125 2.793 2.793 0 0 0 .398437 3.285156l.126953.164063c.638.831.667.966094.5 1.121094-.319.3-.686797.5905-.966797.8125-.28.222-.329015.26089-.416015.33789l-.271485.271485c-.2.213-.40525.52125-.53125.53125h-.164062a3.179 3.179 0 0 0-.648438-.115235.966.966 0 0 0-.849609.40625h-.289063a1.429 1.429 0 0 0-1.363281.964844 2.31 2.31 0 0 0-.183594 1.015625.309.309 0 0 0 .183594.271484 1.933 1.933 0 0 0 .72461.08008.309.309 0 0 0 .300781-.232422.309.309 0 0 0 .279297.232422 5.256 5.256 0 0 0 .773437 0 .309.309 0 0 0 .220703-.126954.416.416 0 0 0 0-.242187 2.039 2.039 0 0 1 .300782-.761719 5.4 5.4 0 0 0-.134766.820313.309.309 0 0 0 .279297.33789s.714687.06055 1.429687.06055a5.6 5.6 0 0 0 1.363282-.126953c.812-.232.966093-.481844 1.121093-.964844a.309.309 0 0 0 0-.07031.966.966 0 0 1 .222657-.5c.7-.85 1.468109-1.169797 1.787109-.966797l.146484.08984a.309.309 0 0 0 .433594-.416016c-.184-.319-.241531-.600078-.144531-.705078.1-.105.551094-.143203 1.121094.0918a.309.309 0 0 0 .232421 0 .309.309 0 0 0 0-.5625c-.638-.261-1.063796-.665844-.966797-.964844.1-.299.571282-.521781 1.238282-.550781a.309.309 0 0 0 .06836-.609375l-.328125-.09961a2.753 2.753 0 0 1-1.625-.773437c-.03-.155.400453-.475172 1.314453-.701172a5.508 5.508 0 0 1 1.150391.580078 11.114 11.114 0 0 0 2.513672 1.140625 37.392 37.392 0 0 0 4.580078.541016 1.933 1.933 0 0 1 .74414 2.173828c-.134999.271-.398953.783781-.626953.800781h-.193359a3.789 3.789 0 0 0-.714844-.117187 1.121 1.121 0 0 0-.966797.425781h-.318359a1.522 1.522 0 0 0-1.429688.966797 2.387 2.387 0 0 0-.185546 1.052734.309.309 0 0 0 .185546.269531 1.991 1.991 0 0 0 .742188.08008.29.29 0 0 1 .570312 0 6.485 6.485 0 0 0 .861329 0 .309.309 0 0 0 .220703-.125.483.483 0 0 0 0-.251953 2.368 2.368 0 0 1 .464844-.964843 5.15 5.15 0 0 0-.201172 1.023437.309.309 0 0 0 .291015.337891c.06 0 .879703.06055 1.720703.06055a6.823 6.823 0 0 0 1.525391-.126953c.677-.184001 1.141047-.898469 1.373047-2.105469a3.575 3.575 0 0 0 .06055-.533203c0-.474-.07031-1.062766-.07031-1.884766 0-1.053.406203-1.720234.783203-1.740234h.08984a.309.309 0 0 0 .04883-.609375c-.754-.174-1.051968-.464078-1.042969-.580079 0-.116.164313-.250953.570313-.376953h.115234a.309.309 0 0 0-.193367-.580118c-.648.116-1.199984.0012-1.333984-.259765-.134-.261.0012-.483969.28125-.792969l.04883-.08008a.309.309 0 0 0-.06055-.357422.435.435 0 0 0-.404297-.08008 6.214 6.214 0 0 1-2.166016.792969h-.298828a6.929 6.929 0 0 1-1.546875-.28125 3.982 3.982 0 0 1-2.029297-1.527344 6.793 6.793 0 0 0-.550781-.607422L67.625 28.1875l.484375.04883a25.811 25.811 0 0 1 3.322266.136719l-.0078.0059c2.4.145 4.551281-.744484 5.488281-2.271484a3.238 3.238 0 0 0 0-3.458984 6.272 6.272 0 0 0-4.199218-2.783204 12.564 12.564 0 0 0-5.683594.279297c-.831.213-1.729438.475032-2.773438.832031a45.48 45.48 0 0 1-5.90039 1.728516 3.972 3.972 0 0 1-2.308594-.220703.57.57 0 0 1-.185547-.367187c0-.126001.368172-.366954 1.451172-.376954 4.755 0 6.077891-2.492437 6.212891-2.773437a.323.323 0 0 0-.492201-.388715 5.8 5.8 0 0 1-3.083984.753906 1.633 1.633 0 0 1-.482422-.404297A2.184 2.184 0 0 0 57.826172 18Zm-10.244141 6.707031a2.165 2.165 0 0 0 1.160157.164063 2.26 2.26 0 0 1-.134766.308594c-.06.116-.116063.231656-.164063.347656-.213.483-.358796.74414-.841797.74414-.473999 0-.617843-.278718-.839843-.761718-.05-.106-.10725-.223313-.15625-.320313a2.223 2.223 0 0 1-.134766-.308594 2.223 2.223 0 0 0 1.121094-.164062l-.0098-.0098z" class="b" style="fill:#720918" transform="translate(-19285.918 -21636)"/>
    <g id="g4126">
      <path id="path4128" d="M57.455078 18.148438c.705.676999.676422 1.30039.357422 1.40039a.464.464 0 0 1-.541016-.136719 1.633 1.633 0 0 0-1.816406-.617187s.84025.270015.65625.666016c0 .06-.145187.07008-.242187.08008a.618.618 0 0 1-.240235 0 1.14 1.14 0 0 0-1.458984.251953s.599609-.116235.724609.134765c-.918.445-1.615172 1.139829-1.451172 2.048828.329 1.875 2.475391 2.327938 4.775391 2.085938 2.725-.29 5.053685-1.488375 8.929688-2.609375 3.876-1.121 7.432484.09055 8.021484 2.310547.309 1.16-.716188 2.899437-3.867188 2.773437-3.151-.126-3.941906-.588674-8.628906-1.138671a34.25 34.25 0 0 0-5.601562 0 13.085 13.085 0 0 1-2.773438-.09961c-.966-.145-3.390922-.610578-3.419922-1.267578-.03-.657 1.246094-.798828 1.246094-.798828s-1.188859-.242797-1.255859-.966797a5.673 5.673 0 0 0-.347657-1.554687l.08984-.136719a1.421 1.421 0 0 0-.09961-1.515625 1.614 1.614 0 0 0-1.285157.46289 4.736 4.736 0 0 0-1.875-.550781 4.706 4.706 0 0 0-1.933593.474609 1.614 1.614 0 0 0-1.382813-.474609 1.421 1.421 0 0 0-.09961 1.517578 1.932 1.932 0 0 0 .164062.259766 4.832 4.832 0 0 0-.308593 1.470703c-.05.638-1.217563.964844-1.226563.964844 0 0 1.322797.310328 1.216797.861328-.116.725-1.265625 1.082031-1.265625 1.082031s1.199984.104125 1.333984.703125c.06.261-.174609.494031-.474609.832031a13.752 13.752 0 0 1-4.472656-1.041015 27.117 27.117 0 0 1-2.400391-1.298828 13.4 13.4 0 0 1-2.078125-2.078125 2.7 2.7 0 0 0-.386719-.667969 1.382 1.382 0 0 0-1.179687-.453125c-.116-.174-.260594-.367313-.308594-.445313-.309-.416-1.342609-.279-2.099609-.125a1.237 1.237 0 0 0-.222657-.21289c-.492999-.367-1.390626.376953-1.390624.376953 0 0 .665828-.09077.798828.115234l.580078-.21289a.667.667 0 0 0-.31836.589843l.125.183594a4.378 4.378 0 0 1 2.15625-.154297 4.755 4.755 0 0 0-1.02539.47461l-.08008-.06055c-.59-.377-1.554688.328125-1.554688.328125a2.194 2.194 0 0 1 .964844.164062l.08008.07031.464844-.376953a1.111 1.111 0 0 0-.164063.699218l.07031.0918.154297.164063s2.232796-.648 2.841797 0a2.629 2.629 0 0 0-1.720704.414062c-.59-.377-1.55664.330078-1.55664.330078a2.194 2.194 0 0 1 .966797.164063l.08984.08008.367188-.330078a1.169 1.169 0 0 0-.144531.74414 2.184 2.184 0 0 0 .453125.714844c.522.5 1.266593.348797 1.933593.966797l.492188.416016a.879.879 0 0 1 .376953.550781.59.59 0 0 1-.259766.482422c.841-.164 1.565219.000187 1.699219.367187.134.367-.125547.628797-.560547.966797.966-.367 1.93261-.31 2.09961.125.167.435-.155375.792158-.734375 1.160156.966-.463999 2.000718-.454 2.261718 0 .261.454001-.17439 1.016469-.90039 1.480469h.06055a2.629 2.629 0 0 1 2.199218-.261719 10.447 10.447 0 0 0 2.212891-1.769531 8.389 8.389 0 0 1-1.990234 2.677735c-.28.271-2.106782 1.758593-2.425782 2.058593-1.556 1.208-3.171109 2.55061-3.287109 2.59961-.377.164-.888328.542203-1.236328.533203a4.59 4.59 0 0 0-.859366-.173829.86.86 0 0 0-.744141.472656c-.2 0-.512375-.05859-.609375-.05859-.445 0-.850093.483032-1.121093 1.082032a2.416 2.416 0 0 0-.144532.964843 1.585 1.585 0 0 0 .580078.05078 3.392 3.392 0 0 1 1.177735-1.818359 4.069 4.069 0 0 0-.453125 1.828125 5.344 5.344 0 0 0 .761718 0c0-.532.701172-2.000594 1.451172-1.933594h.164063c-.657.222-.792969 1.933594-.792969 1.933594a11.906 11.906 0 0 0 2.900391-.06055c.812-.242.744797-.44539.966797-.90039a1.933 1.933 0 0 1 .560546-.666016 1.546 1.546 0 0 1 1.333985-.5.619.619 0 0 1 .357422.435547c.2-.773.647797-1.325578 1.091797-1.267578.444.06.562203.378093.658203.871094.06-.966001.498672-1.721172 1.013672-1.701172.515.02.701265.474328.822265 1.111328 0-1.024.414844-1.864766.964844-1.884766.55-.02.967688.590391 1.054688 1.400391v-.08008c-.08-1.121.405796-2.05861 1.091796-2.09961a1.348 1.348 0 0 1 1.167969 1.033203c0-.57.799641-1.099031 1.806641-1.207031h.380859a3.518 3.518 0 0 0 1.353516-.201172c1.121-.725 1.382765-1.932094 3.759765-3.121093a19.329 19.329 0 0 1 3.121094-.966797 8.823 8.823 0 0 1 3-.400391h.07031a2.339 2.339 0 0 1 .714843.376953 8.93 8.93 0 0 1 1.53711 1.847656c.213.377.0705.183219.8125.699219a10.718 10.718 0 0 0 2.435547 1.09961 36.58 36.58 0 0 0 4.541015.628906h.08008a2.213 2.213 0 0 1 .878907 2.589844c-.184.358-.463672.783437-.888672.773437a5.237 5.237 0 0 0-.900391-.164063.908.908 0 0 0-.773437.44336l-.472657-.05859c-.464 0-.889453.463203-1.189453 1.033203a2.136 2.136 0 0 0-.15625.900391 1.817 1.817 0 0 0 .619141.05078 2.948 2.948 0 0 1 1.15039-1.828125 3.634 3.634 0 0 0-.46289 1.699219 6.129 6.129 0 0 0 .798828 0c0-.454.734109-1.931281 1.537109-1.863281h.173829c-.686003.213-.839844 1.863281-.839844 1.863281a15.462 15.462 0 0 0 3.15039-.04883c.8-.222 1.073391-1.450235 1.150391-1.865235a3.3 3.3 0 0 0 .06055-.482422c-.05-.521999-.07031-1.169593-.07031-1.933593 0-1.121.444266-2.019828 1.072266-2.048828h.08984c-.802-.154-1.333453-.511907-1.314453-.878907h-.02148c0-.265922.307581-.489788.748047-.646484-.73596.112813-1.356378-.02898-1.558594-.425781a1.044 1.044 0 0 1 .300782-1.189453 7.267 7.267 0 0 1-2.347657.724609h-.300781a7.886 7.886 0 0 1-1.632812-.212891c-1.411-.377-2.008844-1.51689-2.714844-2.21289a2.542 2.542 0 0 0-1.121094-.761719s-.06117-.1.798828 0c.858.1 1.538016.192656 4.041016.347656 4.03.242 6.764392-2.464578 5.15039-5.267578-1.614-2.803-5.900296-3.431-9.529296-2.5-2.174.551-4.929094 1.80661-8.746094 2.599609A4.291 4.291 0 0 1 55.5 22.453125c-.358-.174-.898594-1.198797 1.441406-1.216797 4.552 0 5.79936-2.309609 5.94336-2.599609a7.084 7.084 0 0 1-3.298828.771484.532.532 0 0 1-.201172-.04883c-.625-.361-.685688-1.060938-1.929688-1.210937zm18.21875 13.445312c.03561-.0055.06738-.0031.103516-.0098h-.08008c-.0085.0029-.01503.0068-.02344.0098zm-29.914062-9.996094a3.527 3.527 0 0 1 .171875.0098c.551.05.773437.182703.773437.220703a.744.744 0 0 1-.878906.619141 1.121 1.121 0 0 1-.841797-.347657h.01953a.87.87 0 0 1-.289062-.376953 3.527 3.527 0 0 1 1.044922-.125zm3.316406.002a3.527 3.527 0 0 1 .002 0 3.527 3.527 0 0 1 .865234.126953.87.87 0 0 1-.291015.376954 1.121 1.121 0 0 1-.820313.347656.744.744 0 0 1-.878906-.619141 1.754 1.754 0 0 1 .771484-.222656 3.527 3.527 0 0 1 .351563-.0098zm-2.525391 1.53125a.088.088 0 0 1 .002 0 .088.088 0 0 1 .0098 0s.540016.08008.791016.08008c.232 0 .830078-.08008.830078-.08008a.088.088 0 0 1 .07031.125l-.820312.455079h-.08008l-.861328-.455079a.088.088 0 0 1 .05859-.125zm-.714843.978516a1.662 1.662 0 0 0 1.544921 0 1.653 1.653 0 0 0 1.546875 0c.116-.08-.000953.570797-.251953.966797-.357.524-.452265 1.26-1.322265 1.25l-.002-.0039c-.849999 0-.965626-.733094-1.265624-1.246094-.300002-.513-.366-1.024797-.25-.966797zm5.703124 1.09375a.522.522 0 0 0-.199218.300781c-.1.454.474156 1.246703 1.285156 1.845703-.952-.164-1.493203-.04869-1.783203.320313v-.0039c-.271.309.05859 1.024703.433594 1.595703-1.15-.106-2.375657.259843-2.472657.964843a.752.752 0 0 0 0 .105469.966.966 0 0 1-.201172-.5c.06-.58.889594-1.022844 1.933594-.964843a1.469 1.469 0 0 1-.164062-1.429741 1.053 1.053 0 0 1 1.285156-.474609 1.43 1.43 0 0 1-.783203-1.392579c.05-.29.608015-.358187.666015-.367187z" class="c" style="fill:#ffdc00" transform="translate(-19285.918 -21636)"/>
      <path id="path4130" d="m-19222.339-21602.169-.338-.1c-.966-.2-1.865-.667-1.865-1.073 0-.406.686-.783 1.556-.966-.106-.174-.1-.174-.222-.358a3.576 3.576 0 0 0-1.712-1.603 2.745 2.745 0 0 0-.87.05c-1.1.242-2.29.454-2.561.966a2.493 2.493 0 0 0 .377 2.948c.7.9.966 1.247.609 1.691a11.846 11.846 0 0 1-1.411 1.169c-.377.348-.6.705-.966.705a4.339 4.339 0 0 0-.8-.164.8.8 0 0 0-.686.435l-.454-.07c-.454 0-.86.445-1.14.966a2.059 2.059 0 0 0-.145.86 1.759 1.759 0 0 0 .6.05 2.9 2.9 0 0 1 .966-1.633 3.75 3.75 0 0 0-.4 1.691 5.024 5.024 0 0 0 .715 0c0-.4.657-1.856 1.363-1.8h.155c-.619.213-.744 1.8-.744 1.8a11.259 11.259 0 0 0 2.706 0c.715-.2.792-.377.918-.754a1.237 1.237 0 0 1 .29-.667c.734-.9 1.672-1.363 2.194-1.034l.145.09c-.261-.445-.309-.841-.1-1.073a1.515 1.515 0 0 1 1.469 0c-.792-.319-1.285-.841-1.179-1.324.106-.483.766-.761 1.53-.797z" class="c" style="fill:#ffdc00"/>
    </g>
  </g>
  <g id="g4179" transform="matrix(.74798 0 0 .74726 14506.336 16165.099)">
    <g id="g4063" style="fill:#000">
      <path id="path10" d="m-19378.5-21572.003.02 6.16h.514v-2.055h1.657a3.5214774 3.5214774 0 0 0 .484-.02l1.533 2.072h.638l-1.649-2.19c.897-.265 1.369-.957 1.366-1.967 0-.602-.217-1.998-2.168-1.998h-2.39zm2.533.5a1.6858768 1.6858768 0 0 1 1.107.459 1.5170253 1.5170253 0 0 1 .366 1.056c0 1.329-1.013 1.609-1.864 1.612h-1.629v-3.12h1.851a1.6858768 1.6858768 0 0 1 .169 0z" style="fill:#000"/>
      <path id="path14" d="m-19368.682-21573.843-1.507 1.527h.576l1.574-1.469-.643-.06zm.803 1.826-4.125.01.02 6.16 4.303-.01v-.5l-3.786.01v-2.25l3.085-.01v-.487h-3.089v-2.429h3.611v-.501z" style="fill:#000000"/>
      <path id="path18" d="M-19363.161-21568.841v.481h2.41v1.329a3.6078819 3.6078819 0 0 1-2.155.682 2.6643581 2.6643581 0 0 1-2.706-2.597 2.5209003 2.5209003 0 0 1 .792-1.836 2.7599967 2.7599967 0 0 1 1.913-.768 3.0310825 3.0310825 0 0 1 2.077.736l.07.07.347-.376-.07-.07a3.4772858 3.4772858 0 0 0-2.41-.873 3.2827108 3.2827108 0 0 0-2.282.917 3.0277846 3.0277846 0 0 0-.956 2.203 3.1870723 3.1870723 0 0 0 3.235 3.1 4.2133729 4.2133729 0 0 0 2.632-.899l.04-.03v-2.073z" style="fill:#000000"/>
      <path id="path20" d="M-19352.448-21572.065a3.2827108 3.2827108 0 0 0-2.286.918 3.0310825 3.0310825 0 0 0-.956 2.203 3.1870723 3.1870723 0 0 0 3.234 3.099 3.1870723 3.1870723 0 0 0 3.236-3.126 3.0340506 3.0340506 0 0 0-.957-2.196 3.266881 3.266881 0 0 0-2.272-.899zm0 .504a2.6580922 2.6580922 0 0 1 2.706 2.588 2.6547943 2.6547943 0 0 1-2.7 2.606 2.66139 2.66139 0 0 1-2.715-2.588 2.5499217 2.5499217 0 0 1 .791-1.839 2.7537307 2.7537307 0 0 1 1.913-.771z" style="fill:#000000"/>
      <path id="path24" d="M-19342.077-21572.017h-.516l.01 5.177-4.227-5.167h-.36l.02 6.161h.513l-.01-5.176 4.207 5.131.03.03h.348z" style="fill:#000"/>
      <path id="path4027" d="M-19357.644-21572.007h-.53l.02 6.161h.514z" style="fill:#000000"/>
    </g>
    <g id="g4091">
      <path id="path26" d="m-19386.616-21562.871.02 7.763-6.339-7.747h-1.081l.02 10.652h1.513l-.02-7.763 6.355 7.747h1.069l-.03-10.656z" style="fill:#000"/>
      <path id="path28" d="M-19376.89-21562.953a5.6488619 5.6488619 0 0 0-3.935 1.581 5.2455507 5.2455507 0 0 0-1.614 3.809 5.4872869 5.4872869 0 0 0 5.58 5.359 5.6488619 5.6488619 0 0 0 3.931-1.582 5.2451332 5.2451332 0 0 0 1.614-3.809 5.4793543 5.4793543 0 0 0-5.576-5.358zm-.04 1.497a3.966311 3.966311 0 0 1 4.035 3.865 3.7575578 3.7575578 0 0 1-1.166 2.728 4.1074282 4.1074282 0 0 1-2.846 1.145 4.127886 4.127886 0 0 0 .01 0h-.03a4.1074282 4.1074282 0 0 0 .02 0 4.127886 4.127886 0 0 1-2.846-1.133 3.7441976 3.7441976 0 0 1-1.212-2.719 3.9704861 3.9704861 0 0 1 4.035-3.886z" style="fill:#000000"/>
      <path id="path32" d="M-19364.499-21562.855a3.8598469 3.8598469 0 0 0-.162 0h-4.213l.03 10.652h1.513v-3.324h2.344c.209 0 .404 0 .622-.02l2.469 3.337h1.884l-2.78-3.716c1.271-.557 1.973-1.723 1.969-3.341a3.5709324 3.5709324 0 0 0-.883-2.477 3.8598469 3.8598469 0 0 0-2.791-1.117zm.04 1.508a2.4215372 2.4215372 0 0 1 1.59.636 2.1626833 2.1626833 0 0 1 .501 1.477 2.049539 2.049539 0 0 1-.678 1.713 3.155096 3.155096 0 0 1-1.99.542h-2.338v-4.369h2.673a2.4215372 2.4215372 0 0 1 .242 0z" style="fill:#000"/>
      <path id="path36" d="m-19349.131-21562.876-4.039 6.638-4.075-6.617h-1.127l.03 10.652h1.513l-.02-7.181 3.688 6.012 3.639-6.024.02 7.178h1.509l-.02-10.652z" style="fill:#000"/>
      <path id="path38" d="M-19340.334-21562.866h-1.041l-4.777 10.663h1.653l1.211-2.796h4.843l1.253 2.787h1.639l-4.781-10.658zm-.529 2.359 1.82 4.036-3.599.03 1.779-4.064z" style="fill:#000000"/>
      <path id="path42" d="m-19326.409-21562.874.02 7.763-6.339-7.748h-1.085l.03 10.656h1.513l-.02-7.765 6.351 7.748h1.069l-.03-10.652z" style="fill:#000"/>
      <path id="path44" d="M-19318.214-21562.855a5.3295713 5.3295713 0 0 0-.221 0h-3.495l.03 10.652h3.821a5.3295713 5.3295713 0 0 0-.138-10.656zm-2.187 1.509h1.968a3.8373015 3.8373015 0 0 1 3.834 3.837 3.9178802 3.9178802 0 0 1-3.575 3.845l-2.227-.02v-7.666z" style="fill:#000"/>
      <path id="rect48" d="M-19253.967-21613.336h1.513v10.652h-1.513z" style="fill:#000000" transform="rotate(-.15)"/>
      <path id="path50" d="m-19298.265-21553.707-6.129.02v-2.962l4.995-.01v-1.473l-4.995.01v-3.248l5.843-.02v-1.485l-7.356.02.03 10.652 7.641-.02z" style="fill:#000"/>
    </g>
  </g>
</svg>
